<svg xmlns="http://www.w3.org/2000/svg" viewBox="0 0 1240 300" width="1240" height="300" font-family="-apple-system, BlinkMacSystemFont, 'Segoe UI', Roboto, sans-serif" role="img" aria-label="POISE — depth follows physics">
<defs>
<radialGradient id="glow" cx="82%" cy="0%" r="70%"><stop offset="0%" stop-color="#F3C33F" stop-opacity="0.16"/><stop offset="55%" stop-color="#F0455B" stop-opacity="0.05"/><stop offset="100%" stop-color="#0A0D11" stop-opacity="0"/></radialGradient>
<linearGradient id="tfill" x1="0" y1="0" x2="0" y2="1"><stop offset="0%" stop-color="#F3C33F" stop-opacity="0.28"/><stop offset="100%" stop-color="#F3C33F" stop-opacity="0"/></linearGradient>
</defs>
<rect width="1240" height="300" fill="#0A0D11"/>
<rect width="1240" height="300" fill="url(#glow)"/>
<rect x="0.5" y="0.5" width="1239" height="299" fill="none" stroke="#22303F"/>
<text x="56" y="96" font-family="-apple-system, BlinkMacSystemFont, 'Segoe UI', Roboto, sans-serif" font-size="66" fill="#DCE6F0" font-weight="800" text-anchor="start" letter-spacing="14">POISE</text>
<text x="60" y="132" font-family="ui-monospace, 'SFMono-Regular', Menlo, Consolas, monospace" font-size="13" fill="#7C8C9E" font-weight="500" text-anchor="start" letter-spacing="3">POWER-OPTIMIZED INFERENCE VIA STATE-AWARE EXECUTION</text>
<rect x="60" y="150" width="46" height="2" fill="#F3C33F"/>
<text x="60" y="186" font-family="-apple-system, BlinkMacSystemFont, 'Segoe UI', Roboto, sans-serif" font-size="18" fill="#DCE6F0" font-weight="400" text-anchor="start">An on-device LLM engine that varies per-token transformer</text>
<text x="60" y="213" font-family="-apple-system, BlinkMacSystemFont, 'Segoe UI', Roboto, sans-serif" font-size="18" fill="#DCE6F0" font-weight="400" text-anchor="start">depth in response to live hardware physics.</text>
<text x="60" y="250" font-family="ui-monospace, 'SFMono-Regular', Menlo, Consolas, monospace" font-size="13" fill="#F3C33F" font-weight="500" text-anchor="start" letter-spacing="1">hardware-state-conditioned adaptive computation</text>
<rect x="720" y="58" width="464" height="200" rx="4" fill="#10151C" stroke="#22303F"/>
<text x="736" y="80" font-family="ui-monospace, 'SFMono-Regular', Menlo, Consolas, monospace" font-size="9" fill="#7C8C9E" font-weight="500" text-anchor="start" letter-spacing="2">JUNCTION TEMPERATURE</text>
<line x1="736" y1="97.2" x2="1168" y2="97.2" stroke="#F0455B" stroke-width="1.2" stroke-dasharray="2 2"/>
<text x="1168" y="91.2" font-family="ui-monospace, 'SFMono-Regular', Menlo, Consolas, monospace" font-size="10" fill="#F0455B" font-weight="400" text-anchor="end">ceiling 87°</text>
<line x1="736" y1="118.7" x2="1168" y2="118.7" stroke="#F3C33F" stroke-width="1" stroke-dasharray="5 4" opacity="0.75"/>
<text x="1168" y="131.66666666666669" font-family="ui-monospace, 'SFMono-Regular', Menlo, Consolas, monospace" font-size="10" fill="#F3C33F" font-weight="400" text-anchor="end">setpoint 80°</text>
<polygon points="736,180 736.0,160.3 741.5,164.5 746.9,168.2 752.4,171.3 757.9,174.0 763.3,176.3 768.8,178.2 774.3,179.8 779.7,180.0 785.2,180.0 790.7,180.0 796.2,180.0 801.6,180.0 807.1,180.0 812.6,180.0 818.0,180.0 823.5,180.0 829.0,180.0 834.4,180.0 839.9,180.0 845.4,180.0 850.8,180.0 856.3,179.7 861.8,178.8 867.2,177.9 872.7,176.9 878.2,175.9 883.6,174.8 889.1,173.7 894.6,172.6 900.1,171.4 905.5,170.2 911.0,169.0 916.5,167.8 921.9,166.5 927.4,165.2 932.9,163.9 938.3,162.6 943.8,161.3 949.3,160.0 954.7,158.6 960.2,157.3 965.7,155.9 971.1,154.6 976.6,153.2 982.1,151.8 987.5,150.4 993.0,149.0 998.5,147.6 1003.9,146.2 1009.4,144.8 1014.9,143.4 1020.4,142.0 1025.8,140.6 1031.3,139.2 1036.8,137.8 1042.2,136.4 1047.7,136.2 1053.2,135.8 1058.6,135.4 1064.1,134.9 1069.6,134.3 1075.0,133.6 1080.5,132.9 1086.0,132.1 1091.4,131.2 1096.9,130.3 1102.4,129.4 1107.8,128.4 1113.3,127.4 1118.8,126.3 1124.3,125.2 1129.7,124.1 1135.2,124.4 1140.7,124.5 1146.1,124.4 1151.6,124.3 1157.1,124.0 1162.5,123.7 1168.0,123.2 1168,180" fill="url(#tfill)"/>
<polyline points="736.0,160.3 741.5,164.5 746.9,168.2 752.4,171.3 757.9,174.0 763.3,176.3 768.8,178.2 774.3,179.8 779.7,180.0 785.2,180.0 790.7,180.0 796.2,180.0 801.6,180.0 807.1,180.0 812.6,180.0 818.0,180.0 823.5,180.0 829.0,180.0 834.4,180.0 839.9,180.0 845.4,180.0 850.8,180.0 856.3,179.7 861.8,178.8 867.2,177.9 872.7,176.9 878.2,175.9 883.6,174.8 889.1,173.7 894.6,172.6 900.1,171.4 905.5,170.2 911.0,169.0 916.5,167.8 921.9,166.5 927.4,165.2 932.9,163.9 938.3,162.6 943.8,161.3 949.3,160.0 954.7,158.6 960.2,157.3 965.7,155.9 971.1,154.6 976.6,153.2 982.1,151.8 987.5,150.4 993.0,149.0 998.5,147.6 1003.9,146.2 1009.4,144.8 1014.9,143.4 1020.4,142.0 1025.8,140.6 1031.3,139.2 1036.8,137.8 1042.2,136.4 1047.7,136.2 1053.2,135.8 1058.6,135.4 1064.1,134.9 1069.6,134.3 1075.0,133.6 1080.5,132.9 1086.0,132.1 1091.4,131.2 1096.9,130.3 1102.4,129.4 1107.8,128.4 1113.3,127.4 1118.8,126.3 1124.3,125.2 1129.7,124.1 1135.2,124.4 1140.7,124.5 1146.1,124.4 1151.6,124.3 1157.1,124.0 1162.5,123.7 1168.0,123.2" fill="none" stroke="#e7c446" stroke-width="2.4"/>
<circle cx="1168.0" cy="123.2" r="3.5" fill="#e7c446"/>
<text x="736" y="204" font-family="ui-monospace, 'SFMono-Regular', Menlo, Consolas, monospace" font-size="9" fill="#2FD6B0" font-weight="500" text-anchor="start" letter-spacing="2">LAYER BUDGET   32 ▸ 16</text>
<path d="M 736.0 208.0 L 741.5 208.0 L 741.5 208.0 L 746.9 208.0 L 746.9 208.0 L 752.4 208.0 L 752.4 208.0 L 757.9 208.0 L 757.9 208.0 L 763.3 208.0 L 763.3 208.0 L 768.8 208.0 L 768.8 208.0 L 774.3 208.0 L 774.3 208.0 L 779.7 208.0 L 779.7 208.0 L 785.2 208.0 L 785.2 208.0 L 790.7 208.0 L 790.7 208.0 L 796.2 208.0 L 796.2 208.0 L 801.6 208.0 L 801.6 208.0 L 807.1 208.0 L 807.1 208.0 L 812.6 208.0 L 812.6 208.0 L 818.0 208.0 L 818.0 208.0 L 823.5 208.0 L 823.5 208.0 L 829.0 208.0 L 829.0 208.0 L 834.4 208.0 L 834.4 208.0 L 839.9 208.0 L 839.9 208.0 L 845.4 208.0 L 845.4 208.0 L 850.8 208.0 L 850.8 208.0 L 856.3 208.0 L 856.3 208.0 L 861.8 208.0 L 861.8 208.0 L 867.2 208.0 L 867.2 208.0 L 872.7 208.0 L 872.7 208.0 L 878.2 208.0 L 878.2 208.0 L 883.6 208.0 L 883.6 208.0 L 889.1 208.0 L 889.1 208.0 L 894.6 208.0 L 894.6 208.0 L 900.1 208.0 L 900.1 208.0 L 905.5 208.0 L 905.5 208.0 L 911.0 208.0 L 911.0 208.0 L 916.5 208.0 L 916.5 208.0 L 921.9 208.0 L 921.9 208.0 L 927.4 208.0 L 927.4 208.0 L 932.9 208.0 L 932.9 208.0 L 938.3 208.0 L 938.3 208.0 L 943.8 208.0 L 943.8 208.0 L 949.3 208.0 L 949.3 208.0 L 954.7 208.0 L 954.7 208.0 L 960.2 208.0 L 960.2 208.0 L 965.7 208.0 L 965.7 208.0 L 971.1 208.0 L 971.1 208.0 L 976.6 208.0 L 976.6 208.0 L 982.1 208.0 L 982.1 208.0 L 987.5 208.0 L 987.5 208.0 L 993.0 208.0 L 993.0 208.0 L 998.5 208.0 L 998.5 208.0 L 1003.9 208.0 L 1003.9 208.0 L 1009.4 208.0 L 1009.4 208.0 L 1014.9 208.0 L 1014.9 208.0 L 1020.4 208.0 L 1020.4 208.0 L 1025.8 208.0 L 1025.8 208.0 L 1031.3 208.0 L 1031.3 208.0 L 1036.8 208.0 L 1036.8 208.0 L 1042.2 208.0 L 1042.2 208.0 L 1047.7 208.0 L 1047.7 216.5 L 1053.2 216.5 L 1053.2 216.5 L 1058.6 216.5 L 1058.6 216.5 L 1064.1 216.5 L 1064.1 216.5 L 1069.6 216.5 L 1069.6 216.5 L 1075.0 216.5 L 1075.0 216.5 L 1080.5 216.5 L 1080.5 216.5 L 1086.0 216.5 L 1086.0 216.5 L 1091.4 216.5 L 1091.4 216.5 L 1096.9 216.5 L 1096.9 216.5 L 1102.4 216.5 L 1102.4 216.5 L 1107.8 216.5 L 1107.8 216.5 L 1113.3 216.5 L 1113.3 216.5 L 1118.8 216.5 L 1118.8 216.5 L 1124.3 216.5 L 1124.3 216.5 L 1129.7 216.5 L 1129.7 216.5 L 1135.2 216.5 L 1135.2 225.0 L 1140.7 225.0 L 1140.7 225.0 L 1146.1 225.0 L 1146.1 225.0 L 1151.6 225.0 L 1151.6 225.0 L 1157.1 225.0 L 1157.1 225.0 L 1162.5 225.0 L 1162.5 225.0 L 1168.0 225.0 L 1168.0 225.0" fill="none" stroke="#2FD6B0" stroke-width="2"/>
<circle cx="1168.0" cy="225.0" r="3" fill="#2FD6B0"/>
</svg>